<svg width="40.000000" height="80.000000" viewBox="0 0 40 80" fill="none" xmlns="http://www.w3.org/2000/svg" xmlns:xlink="http://www.w3.org/1999/xlink">
	<desc>
			Created with Pixso.
	</desc>
	<defs/>
	<path id="Oval" d="M0 80C22.09 80 40 62.09 40 40C40 17.9 19.56 0 0 0L0 80Z" fill="#A6B7D4" fill-opacity="0.471045" fill-rule="evenodd"/>
	<path id="Path-12" d="M11.58 38.95C11.07 39.37 10.81 39.79 10.81 40.2C10.81 40.61 11.08 41.08 11.61 41.6L21.55 51.6C22.07 52.11 22.07 52.95 21.57 53.47C21.08 53.98 20.27 54 19.76 53.51C19.75 53.51 19.75 53.5 19.74 53.49L7.85 41.62C7.07 40.84 7.07 39.57 7.85 38.79C7.85 38.79 7.85 38.79 7.86 38.78L19.93 26.81C20.45 26.3 21.28 26.3 21.79 26.81C21.8 26.82 21.81 26.83 21.81 26.84C22.33 27.38 22.32 28.23 21.79 28.76L11.58 38.95Z" fill="#FFFFFF" fill-opacity="1.000000" fill-rule="evenodd"/>
</svg>
