<svg width="40.000000" height="80.000000" viewBox="0 0 40 80" fill="none" xmlns="http://www.w3.org/2000/svg" xmlns:xlink="http://www.w3.org/1999/xlink">
	<desc>
			Created with Pixso.
	</desc>
	<defs>
		<clipPath id="clip1_255">
			<rect id="Frame" width="40.000000" height="80.000000" fill="white" fill-opacity="0"/>
		</clipPath>
	</defs>
	<rect id="Frame" width="40.000000" height="80.000000" fill="#FFFFFF" fill-opacity="0"/>
	<g clip-path="url(#clip1_255)">
		<path id="Oval" d="M40 80C17.9 80 0 62.09 0 40C0 17.9 20.43 0 40 0L40 80Z" fill="#A6B7D4" fill-opacity="0.471045" fill-rule="evenodd"/>
		<path id="Path-12" d="M28.41 38.95C28.92 39.37 29.18 39.79 29.18 40.2C29.18 40.61 28.91 41.08 28.38 41.6L18.44 51.6C17.92 52.11 17.92 52.95 18.42 53.47C18.91 53.98 19.72 54 20.23 53.51C20.24 53.51 20.24 53.5 20.25 53.49L32.14 41.62C32.92 40.84 32.92 39.57 32.14 38.79C32.14 38.79 32.14 38.79 32.13 38.78L20.06 26.81C19.54 26.3 18.71 26.3 18.2 26.81C18.19 26.82 18.18 26.83 18.18 26.84C17.66 27.38 17.67 28.23 18.2 28.76L28.41 38.95Z" fill="#FFFFFF" fill-opacity="1.000000" fill-rule="evenodd"/>
	</g>
</svg>
