<svg width="59.327778" height="28.000000" viewBox="0 0 59.3278 28" fill="none" xmlns="http://www.w3.org/2000/svg" xmlns:xlink="http://www.w3.org/1999/xlink">
	<desc>
			Created with Pixso.
	</desc>
	<defs>
		<clipPath id="clip1_116">
			<rect id="Frame" rx="10.000000" width="59.327778" height="28.000000" fill="white" fill-opacity="0"/>
		</clipPath>
	</defs>
	<rect id="Frame" rx="10.000000" width="59.327778" height="28.000000" fill="#FFFFFF" fill-opacity="0"/>
	<g clip-path="url(#clip1_116)">
		<path id="Vector" d="M44.12 0C48.11 -0.12 51.03 1.1 53.39 2.87C55.52 4.47 57.47 6.96 58.3 10.03C59.41 14.19 58.84 16.68 57.41 20.09C56.91 21.28 55.6 22.85 54.84 23.62C50.2 28.31 42.76 29.18 37.09 25.49C36.26 24.95 34.28 23.31 33.88 22.66C34.09 22.24 37.97 18.44 38.19 18.36C38.62 18.63 39.16 19.29 39.62 19.68C40.16 20.14 40.59 20.44 41.27 20.78C45.51 22.88 50.66 20.72 52.1 16.86C55.21 8.51 45.12 2.57 39 8.67L25.46 22.23C23.71 23.98 22.22 25.7 19.27 26.91C10.27 30.61 0.77 24.35 -0.05 15.64C-0.62 9.53 2.4 4.22 7.57 1.66C12.97 -1.01 19.46 0.01 23.77 4.23L24.55 5.02L24.88 5.35C26.41 6.89 28.99 9.44 29.35 9.54C29.66 9.36 34.85 4.09 35.48 3.51C37.4 1.77 40.69 0.1 44.12 0ZM8.74 8.22C5.14 11.19 5.07 16.88 8.77 19.99C10.26 21.23 12.75 22.2 15.4 21.66C18.07 21.12 19.17 19.8 20.6 18.37C21.18 17.79 24.71 14.38 24.85 13.99C24.59 13.5 21.04 10.2 20.57 9.73C19.06 8.23 18.01 7.03 15.3 6.49C12.66 5.96 10.27 6.96 8.74 8.22Z" fill="#1253A2" fill-opacity="1.000000" fill-rule="evenodd"/>
	</g>
</svg>
