<svg width="59.000000" height="55.000000" viewBox="0 0 59 55" fill="none" xmlns="http://www.w3.org/2000/svg" xmlns:xlink="http://www.w3.org/1999/xlink">
	<desc>
			Created with Pixso.
	</desc>
	<defs>
		<clipPath id="clip1_162">
			<rect id="Frame" width="59.000000" height="55.000000" fill="white" fill-opacity="0"/>
		</clipPath>
	</defs>
	<rect id="Frame" width="59.000000" height="55.000000" fill="#FFFFFF" fill-opacity="0"/>
	<g clip-path="url(#clip1_162)">
		<path id="Vector" d="M33.18 44.9L25.38 44.9C25.12 44.9 24.87 45 24.68 45.18C24.5 45.37 24.4 45.62 24.4 45.88L24.4 49.78C24.4 50.04 24.5 50.29 24.68 50.47C24.87 50.65 25.12 50.76 25.38 50.76L33.18 50.76C33.44 50.76 33.69 50.65 33.87 50.47C34.06 50.29 34.16 50.04 34.16 49.78L34.16 45.88C34.16 45.62 34.06 45.37 33.87 45.18C33.69 45 33.44 44.9 33.18 44.9ZM32.21 48.8L26.35 48.8L26.35 46.85L32.21 46.85L32.21 48.8ZM40.99 44.9L37.09 44.9C36.83 44.9 36.58 45 36.4 45.18C36.22 45.37 36.11 45.62 36.11 45.88L36.11 49.78C36.11 50.04 36.22 50.29 36.4 50.47C36.58 50.65 36.83 50.76 37.09 50.76L41 50.76C41.25 50.76 41.5 50.65 41.68 50.47C41.87 50.29 41.97 50.04 41.97 49.78L41.97 45.88C41.97 45.62 41.87 45.37 41.69 45.18C41.5 45 41.25 44.9 40.99 44.9ZM40.02 48.8L38.07 48.8L38.07 46.85L40.02 46.85L40.02 48.8ZM48.8 44.9L44.9 44.9C44.64 44.9 44.39 45 44.21 45.18C44.02 45.37 43.92 45.62 43.92 45.88L43.92 49.78C43.92 50.04 44.02 50.29 44.21 50.47C44.39 50.65 44.64 50.76 44.9 50.76L48.8 50.76C49.06 50.76 49.31 50.65 49.49 50.47C49.68 50.29 49.78 50.04 49.78 49.78L49.78 45.88C49.78 45.62 49.68 45.37 49.49 45.19C49.31 45 49.06 44.9 48.8 44.9ZM47.83 48.8L45.87 48.8L45.87 46.85L47.83 46.85L47.83 48.8ZM21.47 44.9L17.57 44.9C17.31 44.9 17.06 45 16.87 45.18C16.69 45.37 16.59 45.62 16.59 45.88L16.59 49.78C16.59 50.04 16.69 50.29 16.87 50.47C17.06 50.65 17.31 50.76 17.57 50.76L21.47 50.76C21.73 50.76 21.98 50.65 22.16 50.47C22.34 50.29 22.45 50.04 22.45 49.78L22.45 45.88C22.45 45.62 22.34 45.37 22.16 45.19C21.98 45 21.73 44.9 21.47 44.9ZM20.5 48.81L18.54 48.81L18.54 46.85L20.5 46.85L20.5 48.81ZM13.66 44.9L9.76 44.9C9.5 44.9 9.25 45 9.06 45.18C8.88 45.37 8.78 45.62 8.78 45.88L8.78 49.78C8.78 50.04 8.88 50.29 9.06 50.47C9.25 50.65 9.5 50.76 9.76 50.76L13.66 50.76C13.92 50.76 14.17 50.65 14.35 50.47C14.53 50.29 14.64 50.04 14.64 49.78L14.64 45.88C14.64 45.62 14.53 45.37 14.35 45.18C14.17 45 13.92 44.9 13.66 44.9L13.66 44.9ZM12.68 48.8L10.73 48.8L10.73 46.85L12.68 46.85L12.68 48.8Z" fill="#1253A2" fill-opacity="1.000000" fill-rule="nonzero"/>
		<path id="Vector" d="M55.64 1.95L42.84 1.95C41.56 0.7 39.85 -0.01 38.07 -0.01C36.28 -0.01 34.57 0.7 33.29 1.95L2.92 1.95C2.15 1.95 1.4 2.26 0.85 2.81C0.3 3.35 0 4.1 0 4.88L0 51.73C0 52.51 0.3 53.25 0.85 53.8C1.4 54.35 2.15 54.66 2.92 54.66L55.64 54.66C56.41 54.66 57.16 54.35 57.71 53.8C58.26 53.25 58.57 52.51 58.57 51.73L58.57 4.88C58.57 4.1 58.26 3.35 57.71 2.81C57.16 2.26 56.41 1.95 55.64 1.95ZM52.71 7.81L52.71 17.57L25.38 17.57L25.38 7.81L31.37 7.81C32.2 11.2 36.88 14.96 37.47 15.41C37.64 15.54 37.85 15.61 38.07 15.61C38.28 15.61 38.49 15.54 38.66 15.41C39.25 14.95 43.94 11.2 44.76 7.81L52.71 7.81ZM52.71 25.38L41.97 25.38C41.71 25.38 41.46 25.48 41.28 25.66C41.1 25.85 40.99 26.09 40.99 26.35L40.99 41L35.14 41L35.14 26.35C35.14 26.22 35.11 26.1 35.06 25.98C35.01 25.86 34.94 25.75 34.85 25.66C34.76 25.57 34.65 25.5 34.53 25.45C34.42 25.4 34.29 25.38 34.16 25.38L24.4 25.38C24.14 25.38 23.89 25.48 23.71 25.66C23.53 25.84 23.42 26.09 23.42 26.35L23.42 40.99L17.57 40.99L17.57 26.35C17.57 26.09 17.46 25.84 17.28 25.66C17.1 25.48 16.85 25.38 16.59 25.38L5.85 25.38L5.85 19.52L16.59 19.52C16.85 19.52 17.1 19.41 17.28 19.23C17.46 19.05 17.56 18.8 17.57 18.54L17.57 7.81L23.42 7.81L23.42 18.54C23.42 18.8 23.53 19.05 23.71 19.23C23.89 19.42 24.14 19.52 24.4 19.52L52.71 19.52L52.71 25.38ZM52.71 27.33L52.71 41L42.95 41L42.95 27.33L52.71 27.33L52.71 27.33ZM33.18 40.99L25.37 40.99L25.37 27.33L33.18 27.33L33.18 40.99ZM5.85 27.33L15.61 27.33L15.61 40.99L5.85 40.99L5.85 27.33ZM5.85 17.57L5.85 7.81L15.61 7.81L15.61 17.57L5.85 17.57L5.85 17.57ZM38.07 1.95C39.36 1.95 40.6 2.46 41.51 3.38C42.43 4.29 42.94 5.53 42.95 6.83C42.95 8.65 40.16 11.61 38.07 13.38C35.97 11.61 33.18 8.65 33.18 6.83C33.19 5.53 33.7 4.29 34.62 3.38C35.53 2.47 36.77 1.95 38.07 1.95ZM56.61 51.73C56.61 51.99 56.51 52.24 56.33 52.42C56.14 52.61 55.89 52.71 55.64 52.71L2.92 52.71C2.66 52.71 2.42 52.61 2.23 52.42C2.05 52.24 1.95 51.99 1.95 51.73L1.95 4.88C1.95 4.34 2.38 3.9 2.92 3.9L31.9 3.9C31.61 4.52 31.41 5.18 31.31 5.85L5.85 5.85C5.33 5.85 4.84 6.06 4.47 6.42C4.11 6.79 3.9 7.29 3.9 7.8L3.9 41C3.9 41.51 4.1 42.01 4.47 42.38C4.84 42.74 5.33 42.95 5.85 42.95L52.71 42.95C53.23 42.95 53.72 42.74 54.09 42.38C54.45 42.01 54.66 41.51 54.66 41L54.66 7.81C54.66 7.29 54.45 6.79 54.09 6.42C53.72 6.06 53.22 5.85 52.71 5.85L44.82 5.85C44.72 5.18 44.52 4.52 44.23 3.9L55.64 3.9C55.89 3.9 56.14 4 56.33 4.19C56.51 4.37 56.61 4.62 56.61 4.88L56.61 51.73L56.61 51.73Z" fill="#000000" fill-opacity="1.000000" fill-rule="nonzero"/>
		<path id="Vector" d="M12.69 21.47L16.59 21.47L16.59 23.42L12.69 23.42L12.69 21.47ZM8.78 21.47L10.73 21.47L10.73 23.42L8.78 23.42L8.78 21.47ZM19.52 14.64L21.47 14.64L21.47 18.54L19.52 18.54L19.52 14.64ZM19.52 10.73L21.47 10.73L21.47 12.69L19.52 12.69L19.52 10.73ZM19.52 26.35L21.47 26.35L21.47 30.26L19.52 30.26L19.52 26.35ZM19.52 32.21L21.47 32.21L21.47 36.11L19.52 36.11L19.52 32.21ZM24.4 21.47L28.3 21.47L28.3 23.42L24.4 23.42L24.4 21.47ZM30.26 21.47L34.16 21.47L34.16 23.42L30.26 23.42L30.26 21.47ZM36.11 21.47L40.02 21.47L40.02 23.42L36.11 23.42L36.11 21.47ZM41.97 21.47L45.87 21.47L45.87 23.42L41.97 23.42L41.97 21.47ZM37.09 26.35L39.04 26.35L39.04 30.26L37.09 30.26L37.09 26.35ZM37.09 32.21L39.04 32.21L39.04 36.11L37.09 36.11L37.09 32.21Z" fill="#000000" fill-opacity="1.000000" fill-rule="nonzero"/>
		<path id="Vector" d="M38.07 9.76C38.84 9.76 39.59 9.45 40.14 8.9C40.69 8.35 40.99 7.6 40.99 6.83C40.99 6.05 40.69 5.31 40.14 4.76C39.59 4.21 38.84 3.9 38.07 3.9C37.29 3.9 36.54 4.21 35.99 4.76C35.44 5.31 35.14 6.05 35.14 6.83C35.14 7.6 35.44 8.35 35.99 8.9C36.54 9.45 37.29 9.76 38.07 9.76ZM38.07 5.85C38.2 5.85 38.33 5.87 38.45 5.92C38.57 5.96 38.68 6.04 38.78 6.13C38.87 6.22 38.94 6.33 38.99 6.45C39.05 6.57 39.07 6.7 39.07 6.83C39.07 6.96 39.05 7.09 38.99 7.21C38.94 7.33 38.87 7.44 38.78 7.53C38.68 7.62 38.57 7.69 38.45 7.74C38.33 7.79 38.2 7.81 38.07 7.8C37.81 7.79 37.57 7.69 37.4 7.51C37.22 7.32 37.12 7.08 37.12 6.83C37.12 6.57 37.22 6.33 37.4 6.15C37.57 5.97 37.81 5.86 38.07 5.85Z" fill="#1253A2" fill-opacity="1.000000" fill-rule="nonzero"/>
	</g>
</svg>
