<svg width="127.000000" height="34.000000" viewBox="0 0 127 34" fill="none" xmlns="http://www.w3.org/2000/svg" xmlns:xlink="http://www.w3.org/1999/xlink">
	<desc>
			Created with Pixso.
	</desc>
	<defs>
		<filter id="filter_1_18_dd" x="0.000000" y="0.000000" width="127.000000" height="34.000000" filterUnits="userSpaceOnUse" color-interpolation-filters="sRGB">
			<feFlood flood-opacity="0" result="BackgroundImageFix"/>
			<feColorMatrix in="SourceAlpha" type="matrix" values="0 0 0 0 0 0 0 0 0 0 0 0 0 0 0 0 0 0 127 0" result="hardAlpha"/>
			<feOffset dx="0" dy="4"/>
			<feGaussianBlur stdDeviation="1.33333"/>
			<feComposite in2="hardAlpha" operator="out" k2="-1" k3="1"/>
			<feColorMatrix type="matrix" values="0 0 0 0 0 0 0 0 0 0 0 0 0 0 0 0 0 0 0.25 0"/>
			<feBlend mode="normal" in2="BackgroundImageFix" result="effect_dropShadow_1"/>
			<feBlend mode="normal" in="SourceGraphic" in2="effect_dropShadow_1" result="shape"/>
		</filter>
		<clipPath id="clip1_18">
			<rect width="119.000000" height="26.000000" transform="translate(4.000000 0.000000)" fill="white" fill-opacity="0"/>
		</clipPath>
	</defs>
	<g filter="url(#filter_1_18_dd)">
		<rect width="119.000000" height="26.000000" transform="translate(4.000000 0.000000)" fill="#FFFFFF" fill-opacity="0"/>
		<g clip-path="url(#clip1_18)">
			<path d="M116.62 22.3C118.18 22.3 119.52 21.91 120.64 21.13C121.92 20.23 122.57 18.91 122.6 17.16C122.65 14.7 121.47 12.94 119.09 11.86C117.93 11.45 116.56 11.13 114.98 10.93C113.4 10.72 112.24 10.48 111.51 10.21C110.4 9.81 109.84 9.26 109.84 8.55C109.84 8.04 109.98 7.64 110.26 7.35C110.54 7.06 110.93 6.91 111.43 6.91L119.89 6.91L121.4 3.24L111.43 3.24C109.81 3.24 108.43 3.7 107.29 4.63C106.05 5.63 105.43 6.94 105.43 8.55C105.43 10.65 106.44 12.19 108.45 13.14C109.6 13.58 111.12 13.95 113 14.26C114.88 14.57 116.21 14.89 116.98 15.24C117.8 15.61 118.21 16.24 118.2 17.11C118.21 17.63 118.06 18.03 117.76 18.32C117.48 18.52 117.1 18.63 116.62 18.63L101.35 18.62L99.84 22.3L116.62 22.3Z" fill="#FD8301" fill-opacity="1.000000" fill-rule="nonzero"/>
			<path d="M82.52 23.8L92.59 1.75L97.69 1.75L107.77 23.8L82.52 23.8ZM96.65 17.03L95.16 13.58L93.72 17.03L96.65 17.03Z" fill="#FD8301" fill-opacity="1.000000" fill-rule="nonzero"/>
			<path d="M92.59 1.75L97.69 1.75L107.77 23.8L82.52 23.8L92.59 1.75ZM95.16 13.58L93.72 17.03L96.65 17.03L95.16 13.58Z" stroke="#0C1016" stroke-opacity="1.000000" stroke-width="3.000000"/>
			<path d="M74.17 7.02L81.1 7.02C81.44 7.02 81.75 7.16 82.04 7.46C82.47 7.87 82.68 8.67 82.68 9.85C82.68 11.01 82.47 11.81 82.04 12.22C81.75 12.51 81.44 12.66 81.1 12.66L75.73 12.66L74.17 16.44L74.17 7.02ZM74.17 16.44L81.1 16.44C82.93 16.44 84.46 15.82 85.71 14.57C86.83 13.45 87.39 11.88 87.39 9.85C87.39 7.81 86.83 6.24 85.71 5.11C84.46 3.87 82.93 3.25 81.1 3.25L69.47 3.25L69.47 22.3L74.17 22.3L74.17 16.44Z" fill="#FD8301" fill-opacity="1.000000" fill-rule="nonzero"/>
			<path d="M30.09 22.35C29.81 21.75 29.62 21.22 29.52 20.77C29.42 20.32 29.32 19.56 29.23 18.48L13.21 18.53C12.07 18.53 11.06 18.1 10.2 17.24C9.2 16.24 8.7 14.7 8.7 12.63C8.7 10.75 9.2 9.31 10.2 8.31C11.06 7.45 12.07 7.02 13.21 7.02L27.51 7.01C27.96 6.12 28.39 5.45 28.8 5C29.07 4.71 29.59 4.14 30.38 3.28L13.21 3.25C10.58 3.25 8.35 4.16 6.54 5.99C4.84 7.67 4 9.89 4 12.63C4 15.57 4.84 17.88 6.54 19.57C8.35 21.39 10.58 22.3 13.21 22.3L30.09 22.35L30.09 22.35Z" fill="#FFFFFF" fill-opacity="1.000000" fill-rule="nonzero"/>
			<path d="M66.79 22.3L66.79 3.25L63.51 3.25L54.2 18.41L56.25 21.71L62.4 11.94L62.4 22.3L66.79 22.3Z" fill="#FD8301" fill-opacity="1.000000" fill-rule="nonzero"/>
			<path d="M36.04 1.55C38.91 1.43 42.07 1.53 43.77 3.24C45.31 4.77 45.41 7.73 45.24 10.72C45.21 11.43 45.17 12.13 45.17 12.78C45.17 16.41 44.12 19.16 42.18 21.09C40.08 23.21 37.5 24.27 34.45 24.27L32.23 24.27C31.64 24.27 31 24.32 30.35 24.36L29.57 24.41C27.07 24.57 24.66 24.36 23.15 22.86C21.56 21.27 21.39 17.81 21.48 14.51C21.5 13.91 21.51 13.33 21.51 12.78C21.51 9.37 22.54 6.71 24.49 4.77C26.6 2.66 29.17 1.6 32.23 1.6L34.45 1.6C34.94 1.6 35.48 1.57 36.04 1.55Z" fill="#FFFFFF" fill-opacity="1.000000" fill-rule="nonzero"/>
			<path d="M43.77 3.24C45.31 4.77 45.41 7.73 45.24 10.72C45.21 11.43 45.17 12.13 45.17 12.78C45.17 16.41 44.12 19.16 42.18 21.09C40.08 23.21 37.5 24.27 34.45 24.27L32.23 24.27C31.64 24.27 31 24.32 30.35 24.36L29.57 24.41C27.07 24.57 24.66 24.36 23.15 22.86C21.56 21.27 21.39 17.81 21.48 14.51C21.5 13.91 21.51 13.33 21.51 12.78C21.51 9.37 22.54 6.71 24.49 4.77C26.6 2.66 29.17 1.6 32.23 1.6L34.45 1.6C34.94 1.6 35.48 1.57 36.04 1.55C38.91 1.43 42.07 1.53 43.77 3.24Z" stroke="#090C10" stroke-opacity="1.000000" stroke-width="3.000000"/>
			<path d="M50.09 22.3L50.09 11.94L53.46 17.24L55.51 13.96L48.98 3.25L45.7 3.25L45.7 22.3L50.09 22.3Z" fill="#FFFFFF" fill-opacity="1.000000" fill-rule="nonzero"/>
			<path d="M40.73 6.04L36.17 15.67L30.89 10.4L40.73 6.04Z" fill="#C74923" fill-opacity="1.000000" fill-rule="evenodd"/>
			<path d="M26.53 20.23L36.17 15.67L30.89 10.4L26.53 20.23Z" fill="#1353A2" fill-opacity="1.000000" fill-rule="evenodd"/>
			<path d="M34.24 13.74C33.85 14.13 33.21 14.13 32.82 13.74C32.43 13.35 32.43 12.71 32.82 12.32C33.21 11.93 33.85 11.93 34.24 12.32C34.63 12.71 34.63 13.35 34.24 13.74Z" fill="#FFFFFF" fill-opacity="1.000000" fill-rule="evenodd"/>
		</g>
	</g>
</svg>
