<svg width="59.000000" height="59.000000" viewBox="0 0 59 59" fill="none" xmlns="http://www.w3.org/2000/svg" xmlns:xlink="http://www.w3.org/1999/xlink">
	<desc>
			Created with Pixso.
	</desc>
	<defs>
		<clipPath id="clip1_178">
			<rect id="Frame" width="59.000000" height="59.000000" fill="white" fill-opacity="0"/>
		</clipPath>
	</defs>
	<rect id="Frame" width="59.000000" height="59.000000" fill="#FFFFFF" fill-opacity="0"/>
	<g clip-path="url(#clip1_178)">
		<path id="Combined-Shape" d="M8.81 8.18C12.34 6.87 15.59 9.41 15.69 12.7C17.54 12.56 18.72 12.38 20.59 12.72C22.75 13.11 25.16 14.23 26.75 15.63C26.92 15.77 26.96 15.8 27.11 15.92C29.97 18.3 32.04 22.12 33.87 25.28C35.48 28.05 37.55 32.69 40.15 34.47C41.88 35.65 42.6 35.49 43.74 36.06C48.02 38.24 47.94 43.55 43.71 45.12C42.45 45.58 41.21 46.04 39.96 46.49C37.71 47.3 34.56 48.53 32.42 49.22C32.7 51.73 32.51 53.1 31.35 54.96C28.9 58.91 23.28 59.86 19.47 56.44C19.2 56.19 18.9 55.84 18.66 55.52L17.96 54.51C17.43 54.64 16.73 54.94 16.18 55.14L7.32 58.37C5.96 58.87 4.92 59.21 3.37 58.72C0.62 57.83 -0.24 55.03 0.49 52.44C0.66 51.81 0.95 51.29 1.26 50.77L1.45 50.45C2.18 49.23 2.95 47.88 2.7 45.11C2.47 42.47 1.74 39.54 1.1 36.53L0.95 35.84C-0.35 29.56 -1.08 23.02 3.94 18.08C5.25 16.79 5.92 16.58 6.63 15.98C6.51 15.7 6.25 15.37 6.07 15.01C5.9 14.67 5.78 14.31 5.7 13.91C5.2 11.47 6.58 9.01 8.81 8.18ZM10.3 10.59C8.45 10.9 7.92 12.93 8.61 14.01C9.01 14.63 9.61 14.79 9.82 15.68C10.04 16.62 9.54 17.36 9.02 17.72C7.84 18.57 6.96 18.85 5.74 20.14C4.74 21.22 4.05 22.08 3.48 23.63C1.29 29.5 4.38 37.26 5.21 43.19C5.78 47.25 5.37 49.46 3.48 52.35C2.81 53.37 2.48 55.74 4.38 56.17C5.2 56.36 6 55.95 6.69 55.69C12.93 53.35 19.31 51.16 25.59 48.82C31.19 46.74 36.78 44.75 42.38 42.71C43.22 42.4 43.65 42.2 44.01 41.51C44.48 40.61 44.09 39.95 43.62 39.38C42.65 38.2 41.32 38.25 39.81 37.44C37.03 35.94 35.92 34.21 34.26 31.53C32 27.87 29.15 21.48 25.86 18.51C25.71 18.37 25.68 18.32 25.51 18.16C25.37 18.02 25.23 17.93 25.09 17.81C20.16 13.55 15.57 16.15 13.94 15.33C12.04 14.39 13.66 12.7 12.37 11.27C11.99 10.84 11.15 10.45 10.3 10.59ZM29.82 50.2L20.6 53.53C21.54 55.3 24.32 56.38 26.58 55.5C28.53 54.74 30.01 52.96 29.82 50.2Z" fill="#000000" fill-opacity="1.000000" fill-rule="evenodd"/>
		<path id="Fill-3" d="M34.98 0.02C34.36 0.06 33.84 0.1 33.48 0.41C33.18 0.68 32.92 1.28 33.11 1.85C33.52 3.06 34.77 2.72 36.06 2.73C42.47 2.79 47.84 5.74 51.48 10.22C56.01 15.8 57.23 23.95 54.11 30.83C53.9 31.29 53.58 31.71 53.73 32.34C53.84 32.81 54.19 33.2 54.66 33.33C55.93 33.69 56.33 32.55 56.7 31.69C59.69 24.63 59.06 16.72 54.98 10.44C54.43 9.61 53.95 8.95 53.39 8.25L51.55 6.25C47.27 2.28 41.4 -0.31 34.98 0.02Z" fill="#1253A2" fill-opacity="1.000000" fill-rule="evenodd"/>
		<path id="Fill-4" d="M35.18 7.13C34.74 7.15 34.43 7.15 34.12 7.39C33.11 8.15 33.55 9.62 34.6 9.83C35.59 10.03 36.75 9.57 39.41 10.33C44.8 11.86 48.56 16.7 48.73 22.25C48.78 23.86 48.52 25.48 48.04 26.87C47.88 27.34 47.35 28.4 47.32 28.78C47.25 29.56 47.82 30.21 48.53 30.26C49.44 30.34 49.77 29.76 50.06 29.15C52.3 24.44 51.73 18.57 49.06 14.37C46.14 9.77 40.91 6.81 35.18 7.13Z" fill="#1253A2" fill-opacity="1.000000" fill-rule="evenodd"/>
		<path id="Fill-5" d="M34.99 14.31C34.31 14.52 33.76 15.28 34.15 16.16C34.55 17.06 35.32 16.87 36.37 16.96C40.36 17.29 42.62 21.42 41.23 24.79C41.05 25.22 40.85 25.47 40.93 26.02C41.04 26.74 41.82 27.35 42.69 27.09C44.26 26.61 45.27 21.65 43.04 18.15C42.32 17.03 41.23 15.9 39.94 15.24C38.88 14.7 36.43 13.85 34.99 14.31Z" fill="#1253A2" fill-opacity="1.000000" fill-rule="evenodd"/>
	</g>
</svg>
