<svg width="53.000000" height="61.000000" viewBox="0 0 53 61" fill="none" xmlns="http://www.w3.org/2000/svg" xmlns:xlink="http://www.w3.org/1999/xlink">
	<desc>
			Created with Pixso.
	</desc>
	<defs>
		<clipPath id="clip1_188">
			<rect id="Frame" width="53.000000" height="61.000000" fill="white" fill-opacity="0"/>
		</clipPath>
	</defs>
	<rect id="Frame" width="53.000000" height="61.000000" fill="#FFFFFF" fill-opacity="0"/>
	<g clip-path="url(#clip1_188)">
		<path id="Combined-Shape" d="M52.57 0L52.56 60.07L48.77 60.07L48.71 60.01L48.68 59.98C48.67 59.97 48.66 59.95 48.65 59.95L42.21 55.12C41.96 54.93 41.56 54.6 41.3 54.46C41.02 54.61 40.63 54.94 40.36 55.14C39.35 55.9 34.53 59.43 33.92 59.98C33.86 60.03 33.87 60.02 33.82 60.07L33.75 60.07L33.69 60.01C33.68 60 33.67 59.99 33.66 59.98L27.19 55.12C26.94 54.93 26.54 54.59 26.28 54.46C25.96 54.64 25.68 54.9 25.34 55.15L22.51 57.24C22.17 57.5 18.99 59.83 18.76 60.07L18.71 60.07L11.26 54.46L4.22 59.72C4.12 59.79 4.08 59.82 3.98 59.89L3.78 60.07L0 60.07L0 0L52.57 0ZM3.75 3.74L3.75 4.04L3.77 56.29L10.32 51.39C10.6 51.18 10.98 50.86 11.26 50.7L18.77 56.29C19.06 56.12 19.42 55.83 19.71 55.61L26.28 50.71L28.16 52.09C28.79 52.56 29.41 53.03 30.04 53.5L33.79 56.29C34.79 55.7 40.59 51.09 41.3 50.71L48.78 56.29C48.84 55.9 48.81 55.32 48.81 54.91L48.81 3.74L3.75 3.74Z" fill="#1253A2" fill-opacity="1.000000" fill-rule="evenodd"/>
		<path id="Fill-3" d="M11.26 11.91L11.26 15.01L41.3 15.01L41.3 11.26L11.26 11.26L11.26 11.91Z" fill="#000000" fill-opacity="1.000000" fill-rule="evenodd"/>
		<path id="Fill-4" d="M11.26 37.72L11.26 41.3L26.28 41.3L26.28 37.54L11.26 37.54L11.26 37.72Z" fill="#1253A2" fill-opacity="1.000000" fill-rule="evenodd"/>
		<path id="Fill-5" d="M11.26 22.7L11.26 26.28L26.28 26.28L26.28 22.52L11.26 22.52L11.26 22.7Z" fill="#1253A2" fill-opacity="1.000000" fill-rule="evenodd"/>
		<path id="Fill-6" d="M11.26 30.68L11.26 33.79L26.28 33.79L26.28 30.03L11.26 30.03L11.26 30.68Z" fill="#1253A2" fill-opacity="1.000000" fill-rule="evenodd"/>
		<path id="Fill-7" d="M33.79 30.45L33.79 33.79L41.3 33.79L41.3 30.03L33.79 30.03L33.79 30.45Z" fill="#000000" fill-opacity="1.000000" fill-rule="evenodd"/>
		<path id="Fill-8" d="M33.79 37.72L33.79 41.3L41.3 41.3L41.3 37.54L33.79 37.54L33.79 37.72Z" fill="#000000" fill-opacity="1.000000" fill-rule="evenodd"/>
		<path id="Fill-9" d="M33.79 23.4L33.79 26.28L41.3 26.28L41.3 22.52L33.79 22.52L33.79 23.4Z" fill="#000000" fill-opacity="1.000000" fill-rule="evenodd"/>
	</g>
</svg>
