<svg width="53.000000" height="66.000000" viewBox="0 0 53 66" fill="none" xmlns="http://www.w3.org/2000/svg" xmlns:xlink="http://www.w3.org/1999/xlink">
	<desc>
			Created with Pixso.
	</desc>
	<defs>
		<clipPath id="clip1_168">
			<rect id="Frame" width="53.000000" height="66.000000" fill="white" fill-opacity="0"/>
		</clipPath>
	</defs>
	<rect id="Frame" width="53.000000" height="66.000000" fill="#FFFFFF" fill-opacity="0"/>
	<g clip-path="url(#clip1_168)">
		<path id="Combined-Shape" d="M26.56 0C26.7 0.08 33.2 2.04 39.56 3.95L40.36 4.19C45.51 5.73 50.39 7.2 51.52 7.54C51.83 7.64 52.06 7.75 52.22 7.93C52.46 8.2 52.41 8.34 52.57 8.66L52.57 35C52.29 35.77 52.89 43.72 47.82 51.29C47.15 52.28 46.68 52.93 45.93 53.79L44.68 55.14C43.58 56.28 42.34 57.34 40.92 58.37C38.16 60.36 35.03 61.93 31.77 63.2C30.9 63.54 30.08 63.83 29.18 64.14C28.55 64.36 27.03 64.76 26.58 65.03L26.01 65.03C25.63 64.81 23.93 64.33 23.37 64.14C22.48 63.84 21.66 63.54 20.79 63.2C16.11 61.41 11.31 58.71 7.85 55.11L6.18 53.26C3.34 49.8 1.61 45.74 0.69 41.25C0.49 40.27 0.33 39.21 0.23 38.19C0.18 37.69 0.06 35.14 0 34.95L0 8.66C0.15 8.34 0.1 8.2 0.34 7.93C0.51 7.75 0.74 7.64 1.04 7.55C1.6 7.38 2.16 7.21 2.71 7.04C8.21 5.34 13.85 3.69 19.36 2.02C19.56 1.96 20.99 1.54 22.48 1.09L23.04 0.93C24.52 0.48 25.9 0.05 26 0L26.56 0ZM26.28 2.64C26.02 2.64 23.72 3.38 23.29 3.52C17.43 5.33 11.41 7.04 5.55 8.86C5.03 9.02 2.86 9.64 2.57 9.78C2.51 12.93 2.57 16.13 2.57 19.29L2.57 28.83C2.57 35.17 2.4 40.25 4.73 45.72C5.72 48.07 6.94 50.05 8.3 51.69C8.97 52.5 9.84 53.47 10.61 54.14L11.24 54.71C14.35 57.51 18.63 59.66 22.66 61.17C23.15 61.35 25.95 62.38 26.28 62.38C26.64 62.37 29.35 61.36 29.85 61.18C37.34 58.43 44.64 53.56 47.86 45.8C50.21 40.17 49.99 35.36 49.99 28.88C50 25.7 49.99 22.52 50 19.34C50 16.16 50.05 12.94 50 9.77L47.05 8.87C46.07 8.58 45.08 8.29 44.09 7.98C42.12 7.37 40.16 6.81 38.18 6.2C37.65 6.03 26.54 2.64 26.28 2.64Z" fill="#1253A2" fill-opacity="1.000000" fill-rule="evenodd"/>
		<path id="Fill-3" d="M45.27 13.87L45.27 32.08C45.27 34.1 45.28 35.99 45.03 37.98C43.69 48.63 35.7 53.58 27.17 56.65C26.66 56.84 26.52 56.92 25.95 56.94C24.53 57 24.29 58.93 25.56 59.41C26.47 59.76 27.15 59.37 27.98 59.08C35.13 56.57 40.54 53.46 44.19 47.82C45.74 45.42 46.92 42.32 47.45 38.95C48.04 35.24 47.83 30.98 47.83 27.15C47.83 23.08 47.83 19.02 47.83 14.95C47.83 12.98 48.17 12 46.7 11.55L31.5 6.97C29.96 6.51 28.38 6.05 26.84 5.56C25.86 5.25 25.08 5.76 25.01 6.6C24.91 7.73 25.91 7.96 26.58 8.15C29.71 9.08 32.84 10.03 35.95 10.97L44.99 13.69C45.2 13.76 45.18 13.72 45.27 13.87Z" fill="#000000" fill-opacity="1.000000" fill-rule="evenodd"/>
		<path id="Fill-6" d="M6.25 12.13C5.21 12.44 5.32 13.33 5.32 14.47L5.32 30.72C5.32 32.83 5.27 34.98 5.46 37.07C5.97 42.74 7.83 46.9 11.37 50.67C12.03 51.37 13.21 52.36 13.98 52.95C14.32 53.21 14.67 53.42 15.22 53.27C16.06 53.04 16.46 52.01 15.87 51.21L14.54 50.1C13.44 49.21 11.96 47.59 11.09 46.24C7.63 40.82 7.88 36.12 7.88 29.91L7.88 13.65C7.88 13.1 7.82 12.74 7.5 12.43C7.22 12.15 6.76 11.97 6.25 12.13Z" fill="#000000" fill-opacity="1.000000" fill-rule="evenodd"/>
		<path id="Fill-9" d="M22.38 39.32C20.54 37.57 18.14 35.09 16.29 33.23C15.76 32.69 14.79 32.45 14.23 33.2C13.53 34.14 14.23 34.82 14.68 35.28L20.78 41.37C21.15 41.74 21.77 42.64 22.71 42.38C23.26 42.24 24.03 41.32 24.38 40.97L36.61 28.75C37.13 28.23 37.61 27.75 38.13 27.24C39.37 26.01 38.17 24.6 37.02 24.93C36.42 25.1 35.05 26.64 34.59 27.11C32.54 29.16 30.53 31.16 28.49 33.21C26.45 35.25 24.44 37.32 22.38 39.32Z" fill="#1253A2" fill-opacity="1.000000" fill-rule="evenodd"/>
	</g>
</svg>
