<svg width="59.000000" height="53.000000" viewBox="0 0 59 53" fill="none" xmlns="http://www.w3.org/2000/svg" xmlns:xlink="http://www.w3.org/1999/xlink">
	<desc>
			Created with Pixso.
	</desc>
	<defs>
		<clipPath id="clip1_202">
			<rect id="Frame" width="59.000000" height="53.000000" fill="white" fill-opacity="0"/>
		</clipPath>
	</defs>
	<rect id="Frame" width="59.000000" height="53.000000" fill="#FFFFFF" fill-opacity="0"/>
	<g clip-path="url(#clip1_202)">
		<path id="Fill-1" d="M15.74 5.6C15.69 5.75 15.38 5.92 15.23 6.06C14.1 7.03 13.03 8.02 12.08 9.16C11.96 9.31 11.69 9.67 11.57 9.71L9.69 12.42C9.38 13.11 8.69 13.98 8.45 14.77C8.19 14.99 7.26 17.57 7.07 18.15C6.67 19.44 6.42 20.61 6.16 22.04L0.92 21.28L0 21.18L0 21.19L1.07 22.68C1.41 23.2 2.66 24.83 2.87 25.26C3.37 25.89 3.8 26.58 4.3 27.25C4.57 27.6 4.76 27.91 5 28.25C5.22 28.54 5.56 28.97 5.72 29.3C5.88 29.41 6.11 29.77 6.23 29.95C6.4 30.19 6.55 30.41 6.71 30.64C6.97 31.02 7.55 31.72 7.67 32.08C7.79 32.13 8.33 32.94 8.43 33.08L9.24 34.19C9.59 33.84 10.71 32.08 10.86 32.02C10.99 31.72 12.69 29.29 12.92 29.18C12.97 28.89 13.37 28.45 13.55 28.2L15.67 25.25C15.82 24.94 16.92 23.49 17.21 23.07C17.33 22.88 17.58 22.44 17.8 22.35C17.83 22.15 17.81 22.23 17.94 22.04L18.53 21.21L18.36 21.19L17.57 21.31C17.32 21.37 16.98 21.42 16.72 21.39L14.41 21.78C13.61 21.9 12.8 22.05 12 22.15C12.11 21.46 12.3 20.78 12.49 20.17L13.15 18.29C13.26 18.18 13.74 17.08 13.85 16.85C14.31 15.88 15.8 13.64 16.56 12.85C16.97 12.43 17.22 12.1 17.62 11.7C18.24 11.09 20.86 8.92 21.48 8.82C21.62 8.57 22.07 8.41 22.33 8.27C22.63 8.11 23 7.89 23.3 7.79C24.37 7.34 25.25 6.95 26.5 6.59C27.24 6.39 29.56 5.84 30.35 5.95C30.48 5.85 30.56 5.88 30.78 5.86C31.23 5.85 34.61 5.76 35.07 6.07C35.62 5.97 38.6 6.73 38.98 6.98C39.55 7.11 39.99 7.34 40.52 7.56C40.71 7.64 40.86 7.69 41 7.83C41.28 7.85 42.9 8.75 43.01 8.92C43.42 9.07 43.73 9.34 44.05 9.57C44.82 10.12 45.3 10.58 45.87 11C46.09 11.16 46.08 11.2 46.26 11.39C46.41 11.55 46.54 11.65 46.69 11.81L48.24 13.51C48.56 13.89 49.41 14.99 49.59 15.49C49.87 15.67 50.48 17.02 50.72 17.47C51.05 18.26 51.38 18.9 51.65 19.74C51.93 20.61 52.16 21.44 52.34 22.36C52.76 24.58 52.73 26.18 52.63 28.46C52.51 29.04 52.45 29.7 52.35 30.3C52.24 30.89 52.09 31.47 51.93 32.02C51.79 32.54 51 34.91 50.76 35.08C50.65 35.45 49.95 36.82 49.73 37.03C48.8 38.81 46.67 41.09 45.01 42.41C44.69 42.67 43.38 43.7 43.01 43.77C42.9 43.94 42.79 43.98 42.59 44.09C42.44 44.17 42.28 44.28 42.1 44.38C41.75 44.56 41.36 44.79 40.99 44.9C40.83 45.08 39.47 45.57 39.13 45.71C38.8 45.77 38.3 45.97 37.94 46.08C37.51 46.21 37.12 46.31 36.65 46.42C35.8 46.61 34.72 46.77 33.79 46.83L33.58 46.86C32.98 46.86 32.41 46.91 31.82 46.89C31.25 46.88 30.68 46.81 30.13 46.79C29.87 46.77 29.47 46.76 29.3 46.63C28.58 46.73 25.99 45.97 25.31 45.7C25.12 45.64 25.01 45.6 24.82 45.53C24.61 45.45 24.5 45.43 24.33 45.27C23.92 45.27 21.8 44.14 21.49 43.86C21.08 43.74 19.85 42.79 19.45 42.49C19.05 42.19 17.72 41 17.5 40.93C17.48 41.12 17.24 41.28 17.09 41.43C16.91 41.61 16.78 41.74 16.6 41.92L14.13 44.39C13.97 44.55 13.79 44.81 13.6 44.84C13.65 45.1 13.58 44.96 13.79 45.17L15.61 46.86L17.88 48.49C18.17 48.68 18.42 48.8 18.66 49C18.89 49.08 19.35 49.38 19.6 49.51C19.93 49.69 20.33 49.84 20.55 50.07L23.37 51.21C29.8 53.58 37.08 53.14 43.26 50.3C43.74 50.08 44.12 49.87 44.57 49.65C44.87 49.51 45.65 48.99 45.86 48.96L46.01 48.81C46.24 48.62 47.74 47.67 48.42 47.12C48.55 47.02 48.65 46.9 48.8 46.84C50.42 45.43 51.24 44.66 52.55 43.11L52.77 42.89L54.8 39.97C54.99 39.39 56.49 37.21 57.36 34.26C57.9 32.39 58.21 31.07 58.41 29.14C58.45 28.76 58.5 27.44 58.57 27.23L58.57 25.18C58.49 24.99 58.31 22.65 58.23 22.15C58.06 21.13 57.88 20.28 57.62 19.36C56.69 15.97 54.65 11.81 52.35 9.34L51.56 8.43C51.2 7.99 49.92 6.82 49.84 6.73L49.74 6.66L48.9 5.95C47.23 4.56 44.64 2.91 42.64 2.13C39.72 0.98 36.82 0.08 33.25 0C29.52 -0.08 26.47 0.37 23.24 1.51C20.58 2.45 18.83 3.46 16.63 4.99C16.36 5.18 16.06 5.44 15.74 5.6Z" fill="#1253A2" fill-opacity="1.000000" fill-rule="evenodd"/>
		<path id="Fill-2" d="M40.96 18.1L40.02 18.51C39.43 18.77 38.71 19.01 38.14 19.31L33.25 21.35C32.76 21.49 31.55 22.1 31.25 22.11C31.2 22.15 31.2 22.15 31.12 22.2C30.64 22.49 29.6 22.69 29.13 23.28C28.65 23.9 28.4 24.7 28.09 25.56C27.8 26.37 27.5 27.17 27.23 27.95C26.95 28.72 26.54 29.67 26.35 30.46C26.19 30.62 25.94 31.57 25.89 31.89C25.79 32.72 26.12 33.55 26.55 33.97C27.15 34.56 27.33 34.72 28.31 35.05L28.69 35.12C29.52 35.18 30.1 34.98 30.61 34.58C30.83 34.41 31 34.18 31.17 33.9C31.31 33.66 31.46 33.21 31.57 33.06C31.64 32.73 31.8 32.39 31.9 32.1C31.95 31.94 32.01 31.77 32.07 31.62C32.09 31.56 32.14 31.42 32.16 31.38L32.3 31.17C32.29 30.82 33.28 28.39 33.47 27.82C33.69 27.17 33.62 27.35 34.8 26.86L39.69 24.92C40.75 24.49 41.9 23.98 42.95 23.62C43.3 23.5 43.63 23.34 44.01 23.19C44.22 23.11 44.36 23.05 44.54 22.94C44.73 22.82 44.79 22.73 44.96 22.64C45.09 22.45 44.98 22.55 45.19 22.45C45.22 22.32 45.16 22.46 45.24 22.33C45.26 22.3 45.3 22.25 45.32 22.22C46.16 21.09 45.91 19.45 45 18.44C44.86 18.28 44.73 18.18 44.61 18.04C44.34 17.91 44.23 17.79 43.9 17.66C43.56 17.54 43.38 17.52 43.01 17.51C42.11 17.51 41.7 17.89 40.96 18.1Z" fill="#000000" fill-opacity="1.000000" fill-rule="evenodd"/>
	</g>
</svg>
