<svg width="32.250000" height="23.000000" viewBox="0 0 32.25 23" fill="none" xmlns="http://www.w3.org/2000/svg" xmlns:xlink="http://www.w3.org/1999/xlink">
	<desc>
			Created with Pixso.
	</desc>
	<defs>
		<clipPath id="clip1_89">
			<rect id="Frame" width="32.250000" height="23.000000" fill="white" fill-opacity="0"/>
		</clipPath>
	</defs>
	<rect id="Frame" width="32.250000" height="23.000000" fill="#FFFFFF" fill-opacity="0"/>
	<g clip-path="url(#clip1_89)">
		<path id="Path-12" d="M1 11.59C1 7 1.37 4.25 2.1 3.35C2.59 2.62 3.06 2.12 3.51 1.84C3.96 1.56 4.55 1.4 5.29 1.37C10.36 1.12 14.22 0.99 16.86 1C19.5 1 23.01 1.12 27.37 1.37C28.07 1.51 28.69 1.77 29.23 2.16C29.78 2.54 30.14 3.04 30.33 3.64C30.93 5.04 31.24 7.52 31.24 11.1C31.24 14.68 31.01 17.28 30.56 18.91C30.33 19.8 29.89 20.51 29.23 21.04C28.57 21.57 27.69 21.83 26.58 21.82C21.73 22.06 18.09 22.17 15.67 22.17C13.24 22.16 9.77 22.02 5.25 21.74C4.63 21.74 4.1 21.64 3.67 21.43C3.24 21.22 2.8 20.83 2.36 20.24C1.46 19.07 1 16.19 1 11.59Z" stroke="#1253A2" stroke-opacity="1.000000" stroke-width="1.000000"/>
		<path id="Combined-Shape" d="M13.05 7.03L13.06 7.04L21.21 11.3L20.21 11.77L13.05 15.47L13.05 7.03L13.05 7.03Z" fill="#1253A2" fill-opacity="1.000000" fill-rule="evenodd"/>
	</g>
</svg>
